<svg width="167" height="170" viewBox="0 0 167 170" fill="none" xmlns="http://www.w3.org/2000/svg">
<path d="M24.4025 128.965C56.9404 147.75 109.694 147.749 142.233 128.965C158.502 119.572 166.636 107.261 166.637 94.9496V73.772C166.637 86.083 158.502 98.3941 142.233 107.787C109.695 126.573 56.9404 126.574 24.4025 107.787C8.13418 98.3941 0 86.0842 0 73.7731V94.9507C0 107.262 8.13418 119.572 24.4025 128.965Z" fill="#B29060"/>
<path d="M142.233 128.964C109.695 147.749 56.9404 147.751 24.4025 128.964C8.13418 119.571 0 107.261 0 94.9497V120.961C0 133.272 8.13418 145.582 24.4025 154.975C56.9404 173.76 109.694 173.759 142.233 154.975C158.502 145.582 166.637 133.271 166.637 120.96V94.9497C166.637 107.261 158.502 119.572 142.233 128.965V128.964Z" fill="#6C5539"/>
<path d="M24.4025 107.787C56.9404 126.573 109.694 126.571 142.233 107.787C158.502 98.3939 166.637 86.0828 166.637 73.7717V48.1025C166.637 60.4136 158.502 72.7247 142.233 82.1176C109.695 100.903 56.9404 100.905 24.4025 82.1176C8.13418 72.7247 0 60.4147 0 48.1037V73.7729C0 86.0839 8.13418 98.3939 24.4025 107.787Z" fill="#6C5539"/>
<path d="M24.4025 82.1179C56.9404 100.904 109.694 100.903 142.233 82.1179C158.502 72.725 166.637 60.4139 166.637 48.1028C166.637 35.7918 158.503 23.4818 142.235 14.0889C109.697 -4.69688 56.9438 -4.69574 24.4048 14.0889C8.13531 23.4818 0 35.7929 0 48.104C0 60.415 8.13418 72.725 24.4025 82.1179Z" fill="#4E3920"/>
</svg>
