<svg width="169" height="176" viewBox="0 0 169 176" fill="none" xmlns="http://www.w3.org/2000/svg">
<path d="M71.1806 117.592V38.8299C62.7397 31.9748 59.1469 25.0428 59.1469 18.9688V97.7308C59.1469 103.804 62.7397 110.737 71.1806 117.592Z" fill="#F4B7CA"/>
<path d="M57.1859 146.746C15.8109 141.576 2.16987 127.394 0.881714 111.754V139.178C2.16987 154.818 15.8109 169 57.1859 174.17C90.6485 178.35 136.567 173.827 168.535 171.763V144.339C136.567 146.404 90.6485 150.927 57.1859 146.746Z" fill="#F4B7CA"/>
<path d="M57.1859 123.323C15.8109 118.153 2.16987 103.971 0.881714 88.3311V111.754C2.16987 127.395 15.8109 141.577 57.1859 146.746C90.6485 150.927 136.567 146.403 168.535 144.34V120.916C136.567 122.981 90.6485 127.504 57.1859 123.323Z" fill="#E8757B"/>
<path d="M57.1859 95.4065C15.8109 90.2369 2.16987 76.0547 0.881714 60.4146V88.3295C2.16987 103.97 15.8109 118.152 57.1859 123.321C90.6485 127.502 136.567 122.978 168.535 120.915V92.9999C136.567 95.0646 90.6485 99.5879 57.1859 95.4065Z" fill="#F4B7CA"/>
<path d="M57.186 95.4066C90.6487 99.5869 136.567 95.0636 168.535 93.0001C161.202 38.9835 122.984 6.3947 96.4216 1.02927C75.7183 -3.15328 59.1454 5.92494 59.1454 18.9695C59.1454 25.0424 62.7382 31.9756 71.1792 38.8307C32.8356 24.9224 0.832031 41.4364 0.832031 59.2035C0.832031 59.6064 0.849004 60.0106 0.88183 60.4158C2.16999 76.0559 15.8111 90.2381 57.186 95.4077V95.4066Z" fill="#FFA0A0"/>
</svg>
