<svg width="186" height="179" viewBox="0 0 186 179" fill="none" xmlns="http://www.w3.org/2000/svg">
<path d="M4.05097 58.8097L84.6513 105.344C89.2436 107.995 96.2549 108.286 100.231 105.99L183.072 58.1623C184.873 57.1231 185.755 55.724 185.755 54.2582C185.755 52.4867 184.467 50.6178 181.954 49.1667L101.353 2.63228C96.7609 -0.0187468 89.7496 -0.309657 85.7731 1.98593L2.93259 49.8141C1.13166 50.8533 0.249878 52.2524 0.249878 53.7182C0.249878 55.4897 1.53804 57.3586 4.05097 58.8097Z" fill="#FBDC8C"/>
<path d="M185.754 79.6063V102.066C185.754 103.532 184.873 104.931 183.072 105.972L100.231 153.799C96.2546 156.095 89.2433 155.805 84.651 153.154L4.05064 106.619C3.18696 106.12 2.46817 105.572 1.8954 104.996C0.804205 103.895 0.249545 102.69 0.248413 101.528V79.0664C0.248413 80.8379 1.53771 82.7068 4.05064 84.1579L84.651 130.692C89.2433 133.343 96.2546 133.634 100.231 131.339L183.072 83.5104C184.873 82.4713 185.754 81.0722 185.754 79.6063Z" fill="#FFDD7A"/>
<path d="M185.754 102.066V125.468C185.754 126.933 184.873 128.332 183.072 129.372L100.231 177.199C96.2546 179.496 89.2433 179.205 84.651 176.554L4.05064 130.02C1.53771 128.568 0.248413 126.7 0.248413 124.928V101.527C0.249545 102.69 0.804205 103.894 1.8954 104.996C2.46817 105.572 3.18696 106.12 4.05064 106.619L84.651 153.153C89.2433 155.804 96.2546 156.095 100.231 153.798L183.072 105.971C184.873 104.931 185.754 103.532 185.754 102.066Z" fill="#FFFCEF"/>
<path d="M183.072 58.1623L100.231 105.99C96.2547 108.286 89.2434 107.996 84.6511 105.344L4.05072 58.8098C1.5378 57.3586 0.249634 55.4898 0.249634 53.7183V79.0671C0.249634 80.8386 1.5378 82.7074 4.05072 84.1586L84.6511 130.693C89.2434 133.344 96.2547 133.635 100.231 131.339L183.072 83.5111C184.873 82.472 185.754 81.0729 185.754 79.607V54.2582C185.754 55.7241 184.873 57.1232 183.072 58.1623Z" fill="#FFFCEF"/>
</svg>
