<svg width="231" height="213" viewBox="0 0 231 213" fill="none" xmlns="http://www.w3.org/2000/svg">
<path d="M105.694 159.589V99.583C99.2513 94.3603 96.509 89.079 96.509 84.4514V144.458C96.509 149.085 99.2513 154.367 105.694 159.589Z" fill="#F4B7CA"/>
<path d="M95.0123 181.801C63.4327 177.863 53.021 167.058 52.0378 155.142V176.035C53.021 187.951 63.4327 198.756 95.0123 202.694C120.553 205.879 155.601 202.433 180 200.861V179.968C155.601 181.541 120.553 184.987 95.0123 181.801Z" fill="#F4B7CA"/>
<path d="M95.0123 163.956C63.4327 160.017 53.021 149.212 52.0378 137.296V155.142C53.021 167.058 63.4327 177.863 95.0123 181.801C120.553 184.986 155.601 181.54 180 179.968V162.122C155.601 163.695 120.553 167.141 95.0123 163.956Z" fill="#E8757B"/>
<path d="M95.0123 142.687C63.4327 138.749 53.021 127.944 52.0378 116.028V137.295C53.021 149.211 63.4327 160.016 95.0123 163.955C120.553 167.139 155.601 163.693 180 162.121V140.854C155.601 142.427 120.553 145.873 95.0123 142.687Z" fill="#F4B7CA"/>
<path d="M95.0125 142.687C120.553 145.872 155.601 142.426 180 140.854C174.403 99.7003 145.233 74.8719 124.959 70.7842C109.157 67.5976 96.508 74.514 96.508 84.4523C96.508 89.079 99.2503 94.3612 105.693 99.5839C76.4269 88.9876 52 101.569 52 115.105C52 115.412 52.013 115.72 52.038 116.029C53.0212 127.945 63.4328 138.75 95.0125 142.688V142.687Z" fill="#FFA0A0"/>
<path d="M161.818 48.2745C161.818 48.2745 155.466 54.6543 158.31 60.3719C160.987 65.7515 169.511 68.4082 182.343 60.6441C186.766 57.9683 195.259 49.7501 192.106 42.4187C192.106 42.4187 187.965 29.5672 161.818 48.2745Z" fill="#F16072"/>
<path d="M175.685 51.5623C183.408 47.6464 186.494 38.2114 182.578 30.4886C178.662 22.7658 169.227 19.6796 161.504 23.5955C153.781 27.5114 150.695 36.9464 154.611 44.6692C158.527 52.392 167.962 55.4781 175.685 51.5623Z" fill="#F4043E"/>
<path d="M170.257 26.6089C168.971 30.5404 164.741 32.6854 160.81 31.3994L170.257 26.6089Z" fill="#E62249"/>
<path d="M170.257 26.6089C168.971 30.5404 164.741 32.6854 160.81 31.3994" stroke="black" stroke-linecap="round" stroke-linejoin="round"/>
<path d="M166.345 30.3594C166.345 30.3594 158.424 10.7134 168.52 4.84165" stroke="black" stroke-linecap="round" stroke-linejoin="round"/>
<path d="M57.0973 67.9538C55.7766 67.9538 54.5144 68.2008 53.3508 68.6471C52.0178 64.3971 48.0494 61.314 43.3599 61.314C38.6705 61.314 34.3901 64.6446 33.2237 69.1538C32.653 69.0575 32.0678 69.0049 31.4699 69.0049C25.6876 69.0049 21 73.6925 21 79.4747C21 85.257 25.6876 89.9446 31.4699 89.9446C32.9177 89.9446 34.2965 89.6504 35.551 89.1192C37.3874 92.1411 40.7103 94.1596 44.5049 94.1596C48.5996 94.1596 52.1431 91.8074 53.8638 88.3819C54.8826 88.7125 55.9691 88.8936 57.0977 88.8936C62.88 88.8936 67.5676 84.206 67.5676 78.4237C67.5676 72.6415 62.88 67.9543 57.0977 67.9543L57.0973 67.9538Z" fill="#FF868C"/>
<path d="M55.176 66.0062C54.0532 66.0062 52.9804 66.2159 51.9911 66.5955C50.8579 62.9829 47.4842 60.3619 43.498 60.3619C39.5118 60.3619 35.8729 63.1931 34.8814 67.0263C34.3965 66.9446 33.8989 66.8997 33.3904 66.8997C28.4753 66.8997 24.4905 70.8845 24.4905 75.7996C24.4905 80.7147 28.4753 84.6995 33.3904 84.6995C34.6212 84.6995 35.7935 84.4493 36.8595 83.9981C38.4204 86.5668 41.2452 88.283 44.4709 88.283C47.9518 88.283 50.9637 86.2835 52.4265 83.3715C53.2928 83.6526 54.2158 83.8065 55.1755 83.8065C60.0906 83.8065 64.0755 79.8216 64.0755 74.9066C64.0755 69.9915 60.0906 66.0066 55.1755 66.0066L55.176 66.0062Z" fill="white"/>
<path d="M34.5283 75.8001C28.524 74.5484 27.9474 64.1866 37.8189 48.8951C39.7957 45.8328 45.9447 35.8401 52.3358 47.5403C55.4907 53.3158 64.53 77.3487 51.7551 78.7035C47.1315 79.1938 46.1418 78.2209 34.5283 75.8001Z" fill="#FF3334"/>
<path d="M43.5408 46.5624V49.5788" stroke="black" stroke-linecap="round" stroke-linejoin="round"/>
<path d="M48.3755 50.7855V53.5005" stroke="black" stroke-linecap="round" stroke-linejoin="round"/>
<path d="M39.6274 53.5005V57.1198" stroke="black" stroke-linecap="round" stroke-linejoin="round"/>
<path d="M44.2832 57.1199V61.3431" stroke="black" stroke-linecap="round" stroke-linejoin="round"/>
<path d="M52.9001 55.796V59.2315" stroke="black" stroke-linecap="round" stroke-linejoin="round"/>
<path d="M39.6274 63.9069V65.8677" stroke="black" stroke-linecap="round" stroke-linejoin="round"/>
<path d="M34.8015 64.8876V68.5823" stroke="black" stroke-linecap="round" stroke-linejoin="round"/>
<path d="M46.113 66.7349V70.0904" stroke="black" stroke-linecap="round" stroke-linejoin="round"/>
<path d="M51.6931 63.9069V66.7349" stroke="black" stroke-linecap="round" stroke-linejoin="round"/>
<path d="M54.1062 70.0903V73.1068" stroke="black" stroke-linecap="round" stroke-linejoin="round"/>
<path d="M42.3425 70.0903V73.1068" stroke="black" stroke-linecap="round" stroke-linejoin="round"/>
<g clip-path="url(#clip0_2_586)">
<path d="M121.091 119.181L112.448 110.367L30 191.226L38.6435 200.04L121.091 119.181Z" fill="#94EAB6"/>
<path d="M123.256 105.284L112.448 110.368L121.091 119.181L126.382 108.472L123.256 105.284Z" fill="#FEF4E9"/>
<path d="M129.38 102.407L123.256 105.284L126.382 108.472L129.38 102.407Z" fill="#3F3F3F"/>
</g>
<defs>
<clipPath id="clip0_2_586">
<rect width="12.3445" height="133.144" fill="white" transform="translate(125.058 98) rotate(45.5574)"/>
</clipPath>
</defs>
</svg>
