<svg width="231" height="213" viewBox="0 0 231 213" fill="none" xmlns="http://www.w3.org/2000/svg">
<g clip-path="url(#clip0_2_101)">
<path fill-rule="evenodd" clip-rule="evenodd" d="M12.2205 194.155C9.55165 201.258 17.3465 207.739 23.8429 203.818L37.0167 195.868L17.6326 179.751L12.2205 194.155ZM19.5567 174.631L23.5649 163.963L51.4566 187.153L41.7001 193.041L19.5567 174.631ZM25.489 158.843L56.1401 184.327L66.4453 178.108L29.7226 147.575L25.489 158.843ZM31.6467 142.455L33.3222 137.996C35.2576 132.845 41.6945 131.14 45.9256 134.658L76.1881 159.819C80.4191 163.337 79.9181 169.977 75.2071 172.82L71.1288 175.281L31.6467 142.455Z" fill="#97CDF3"/>
<path fill-rule="evenodd" clip-rule="evenodd" d="M217.121 143.617C224.373 145.85 230.369 137.676 226.062 131.43L217.328 118.762L202.416 139.088L217.121 143.617ZM197.188 137.478L186.297 134.124L207.754 104.877L214.222 114.259L197.188 137.478ZM181.07 132.514L204.648 100.374L197.816 90.4645L169.566 128.971L181.07 132.514ZM164.338 127.361L159.786 125.959C154.527 124.339 152.435 118.018 155.69 113.581L178.97 81.8487C182.225 77.4121 188.883 77.5096 192.007 82.0396L194.711 85.9611L164.338 127.361Z" fill="#FF9999"/>
<rect x="40.5955" y="102.972" width="5" height="14.1465" transform="rotate(-29.8275 40.5955 102.972)" fill="#9BE19E"/>
<rect x="167" y="64.4869" width="5" height="14.1465" transform="rotate(-29.8275 167 64.4869)" fill="#9BE19E"/>
<rect x="94.7483" y="106" width="4.4962" height="8.88132" transform="rotate(11.3523 94.7483 106)" fill="#9BE19E"/>
<rect x="181.748" y="47" width="4.4962" height="8.88132" transform="rotate(11.3523 181.748 47)" fill="#CE94D8"/>
<rect x="124.352" y="136.237" width="4.4962" height="8.88132" transform="rotate(-44.8954 124.352 136.237)" fill="#CE94D8"/>
<rect x="129" y="60.1735" width="4.4962" height="8.88132" transform="rotate(-44.8954 129 60.1735)" fill="#CE94D8"/>
<rect x="97.8818" y="148.303" width="4.4962" height="8.88132" transform="rotate(64.9366 97.8818 148.303)" fill="#9BE19E"/>
<rect x="121.805" y="60.8252" width="4.4962" height="8.88132" transform="rotate(-162.747 121.805 60.8252)" fill="#9BE19E"/>
<rect x="77.8862" y="132" width="5" height="14.1465" transform="rotate(78.9932 77.8862 132)" fill="#F3B6B6"/>
<rect x="152.886" y="96" width="5" height="14.1465" transform="rotate(78.9932 152.886 96)" fill="#F3B6B6"/>
<rect x="77.2334" y="80.7997" width="4.69743" height="8.64592" transform="rotate(-103.91 77.2334 80.7997)" fill="#F3B6B6"/>
<rect x="73.3628" y="101.241" width="5" height="7.3558" transform="rotate(51.7924 73.3628 101.241)" fill="#FA7A7A"/>
<rect x="155.78" y="76" width="5" height="7.3558" transform="rotate(51.7924 155.78 76)" fill="#FA7A7A"/>
<rect x="143" y="35.5221" width="5" height="7.3558" transform="rotate(-17.7227 143 35.5221)" fill="#FA7A7A"/>
<rect x="52" y="60.6606" width="5" height="7.3558" transform="rotate(-47.0658 52 60.6606)" fill="#F7D16F"/>
<rect x="101.71" y="128.371" width="5" height="7.3558" transform="rotate(82.3997 101.71 128.371)" fill="#F7D16F"/>
<rect x="167.291" y="47" width="5" height="7.3558" transform="rotate(82.3997 167.291 47)" fill="#F7D16F"/>
</g>
<defs>
<clipPath id="clip0_2_101">
<rect width="231" height="213" fill="white"/>
</clipPath>
</defs>
</svg>
