<svg width="231" height="213" viewBox="0 0 231 213" fill="none" xmlns="http://www.w3.org/2000/svg">
<g filter="url(#filter0_d_2_672)">
<path d="M73.0028 84L0 95.7984L18.0664 171.382L73.0028 165.852V84Z" fill="#85DEBE"/>
</g>
<path d="M63.7853 95.061L9.21753 103.823L22.7217 159.952L63.7853 155.845V95.061Z" fill="white"/>
<g filter="url(#filter1_d_2_672)">
<path d="M126.096 102.804H60.0984V179.862H119.091L126.096 102.804Z" fill="#FAA6A6"/>
</g>
<path d="M118.353 111.653H68.2097V170.645H113.031L118.353 111.653Z" fill="white"/>
<g filter="url(#filter2_d_2_672)">
<path d="M121.671 163.639L112.454 91.374L183.613 88.4244L181.032 159.215L121.671 163.639Z" fill="#9DB0F4"/>
</g>
<path d="M128.822 153.684L122.04 100.548L174.396 98.3793L172.497 150.431L128.822 153.684Z" fill="white"/>
<path d="M44.8111 139.203C44.2005 139.287 43.8083 136.688 43.7549 136.302L42.7948 129.36C41.1878 129.583 31.4419 131.586 31.1797 129.689C31.1352 129.368 31.6129 129.269 31.8102 129.275C34.0999 129.253 36.1979 129.028 38.4477 128.717C43.108 128.072 48.1529 127.604 52.6689 126.39C53.1099 126.263 53.5288 125.976 53.9787 125.914C54.3644 125.86 54.7169 126.041 54.7747 126.459C54.9792 127.937 45.6463 128.9 44.4938 129.093C44.8227 131.471 45.1838 133.845 45.4163 136.236C45.4464 136.691 45.4218 139.118 44.8111 139.203ZM34.1177 126.302C34.0733 125.981 34.3546 125.647 34.6261 125.479C38.9099 122.823 42.1977 121.254 45.0855 116.793L37.8055 118.39C37.1073 118.552 34.7943 118.642 34.652 117.614C34.6076 117.293 35.0531 117.198 35.2504 117.204C35.9021 117.179 36.6591 117.205 37.3019 117.116C39.6481 116.792 42.3577 116.253 44.6229 115.58C45.1282 115.444 45.772 115.126 46.2541 115.059C46.7041 114.997 47.06 115.439 47.1134 115.825C47.3223 117.336 44.8694 119.968 43.8512 120.895C45.9619 121.946 48.3084 122.571 50.6803 122.669C50.9418 122.665 51.7265 122.655 51.7843 123.073C51.8643 123.651 50.8215 123.927 50.4037 123.984C48.1539 124.295 44.6267 122.949 42.6768 121.876C41.0048 123.286 36.8574 126.218 34.6719 126.52C34.5112 126.543 34.1533 126.559 34.1177 126.302ZM36.5568 113.387C36.5257 113.162 36.6231 112.919 36.8802 112.884C37.2016 112.839 39.8374 113.425 41.5087 113.194C42.2158 113.096 42.8641 112.81 43.5711 112.712C43.9247 112.663 44.2539 112.912 44.3028 113.266C44.4184 114.101 41.5812 114.428 41.0027 114.508C39.9099 114.659 36.7835 115.026 36.5568 113.387Z" fill="black"/>
<path d="M99.8154 155.784C99.1715 155.704 99.4597 153.124 99.5118 152.706C99.9284 149.357 100.574 146.005 100.995 142.624C101.472 138.792 101.988 134.901 102.236 131.073C102.335 129.222 100.311 129.199 100.419 128.33C100.463 127.975 100.87 127.863 101.159 127.899C102.962 128.123 104.179 129.909 103.967 131.615C103.638 134.256 103.277 136.892 102.981 139.536L103.69 139.624C104.849 139.768 105.991 139.518 107.086 139.654C107.698 139.731 108.209 140.088 108.125 140.765C108.033 141.505 104.56 141.04 103.948 140.964L102.857 140.796C102.381 144.889 101.932 149.018 101.134 153.071C101.05 153.486 100.363 155.852 99.8154 155.784ZM82.2707 137.81C82.3107 137.488 82.7977 137.516 82.9869 137.572C83.6872 137.724 84.4117 137.945 85.1201 138.033C87.5349 138.334 90.1948 137.978 92.6093 137.755C93.2887 136.499 93.8151 135.159 94.0879 133.754L86.8358 133.44C86.1194 133.417 83.8293 132.903 83.9574 131.873C83.9975 131.551 84.4523 131.575 84.6736 131.635C85.3096 131.779 86.0019 131.996 86.6459 132.076C88.8997 132.357 91.7773 132.617 94.051 132.474C94.2804 132.47 95.2783 132.333 95.4393 132.353C96.0833 132.433 96.0555 133.182 95.9995 133.632C95.2825 139.396 88.3122 146.277 83.1179 148.345C82.9449 148.422 82.6753 148.486 82.4821 148.462C82.3533 148.446 82.2004 148.362 82.1842 148.229C82.2564 147.911 82.5139 147.681 82.7673 147.484C86.2147 145.003 89.3444 142.711 91.7569 139.088C89.5356 139.335 87.4028 139.658 85.149 139.377C84.4729 139.293 82.1385 138.872 82.2707 137.81Z" fill="black"/>
<path d="M146.203 127.636C144.876 127.734 142.129 128.426 141.988 126.517C141.861 124.802 141.932 123.137 141.579 121.439C141.186 119.646 140.13 119.887 140.091 119.369C140.063 118.981 140.24 118.74 140.661 118.709C143.12 118.527 143.325 121.732 143.447 123.383C143.526 124.45 143.035 126.602 144.491 126.494C147.565 126.266 150.734 125.998 153.788 125.512C154.239 125.446 154.68 125.25 155.133 125.217C155.457 125.193 155.85 125.229 155.881 125.649C155.981 127.008 147.497 127.54 146.203 127.636ZM136.987 134.11C136.963 133.786 137.414 133.72 137.643 133.736C140.287 133.865 142.814 133.711 145.467 133.514C149.738 133.197 154.484 133.138 158.647 132.244C159.095 132.146 159.534 131.918 159.987 131.885C160.375 131.856 160.713 132.026 160.744 132.447C160.807 133.288 159.739 133.367 159.161 133.475C154.443 134.345 149.379 134.493 144.59 134.848C143.554 134.925 137.114 135.825 136.987 134.11ZM139.806 117.276C139.782 116.952 140.233 116.886 140.462 116.902C141.733 116.938 142.97 116.944 144.232 116.85C146.788 116.661 149.439 116.432 151.973 115.951C152.422 115.853 152.858 115.593 153.311 115.559C153.667 115.533 154.04 115.733 154.068 116.121C154.128 116.93 153.1 117.104 152.488 117.182C149.336 117.676 146.107 118.012 142.936 118.248C142.225 118.3 139.885 118.344 139.806 117.276Z" fill="black"/>
<path d="M153.748 141.896C159.352 132.458 165.915 135.014 168.496 137.472C168.496 132.753 171.938 129.606 173.658 128.623C174.248 125.673 179.557 123.707 182.138 123.093C189.217 113.064 193.691 119.897 195.043 124.567L199.836 126.411C206.03 123.461 208.808 129.115 209.422 132.31C220.926 140.864 226.014 158.242 227.12 165.862V205.313C195.264 210.032 174.764 208.017 168.496 206.419C151.683 203.174 146.989 194.252 146.743 190.196V157.382C145.858 147.353 151.044 142.88 153.748 141.896Z" fill="white"/>
<path d="M180.866 178.206V143.248C177.129 140.205 175.538 137.129 175.538 134.433V169.39C175.538 172.086 177.129 175.163 180.866 178.206Z" fill="white"/>
<path d="M174.671 191.145C156.353 188.851 150.314 182.556 149.744 175.614V187.786C150.314 194.728 156.353 201.022 174.671 203.317C189.486 205.172 209.815 203.164 223.968 202.249V190.077C209.815 190.993 189.486 193.001 174.671 191.145Z" fill="#F4B7CA"/>
<path d="M174.671 180.749C156.353 178.455 150.314 172.16 149.744 165.218V175.615C150.314 182.556 156.353 188.851 174.671 191.145C189.486 193.001 209.815 190.993 223.968 190.077V179.681C209.815 180.597 189.486 182.605 174.671 180.749Z" fill="#E8757B"/>
<path d="M174.671 168.359C156.353 166.064 150.314 159.77 149.744 152.828V165.218C150.314 172.16 156.353 178.454 174.671 180.749C189.486 182.604 209.815 180.597 223.968 179.681V167.291C209.815 168.207 189.486 170.215 174.671 168.359Z" fill="#F4B7CA"/>
<path d="M174.671 168.359C189.486 170.214 209.815 168.207 223.968 167.291C220.721 143.316 203.801 128.852 192.041 126.471C182.876 124.614 175.538 128.643 175.538 134.433C175.538 137.129 177.129 140.206 180.866 143.248C163.89 137.075 149.722 144.405 149.722 152.291C149.722 152.469 149.729 152.649 149.744 152.829C150.314 159.77 156.353 166.065 174.671 168.359V168.359Z" fill="#FFA0A0"/>
<path d="M192.781 130.252C192.286 130.252 191.814 130.344 191.378 130.512C190.879 128.917 189.393 127.76 187.638 127.76C185.882 127.76 184.28 129.01 183.843 130.702C183.63 130.666 183.411 130.646 183.187 130.646C181.022 130.646 179.267 132.405 179.267 134.575C179.267 136.746 181.022 138.505 183.187 138.505C183.728 138.505 184.245 138.394 184.714 138.195C185.402 139.329 186.646 140.086 188.066 140.086C189.599 140.086 190.925 139.204 191.569 137.918C191.951 138.042 192.357 138.11 192.78 138.11C194.945 138.11 196.7 136.351 196.7 134.18C196.7 132.01 194.945 130.251 192.78 130.251L192.781 130.252Z" fill="#F9737A"/>
<path d="M192.062 129.521C191.641 129.521 191.24 129.599 190.869 129.742C190.445 128.386 189.183 127.402 187.69 127.402C186.198 127.402 184.836 128.465 184.465 129.903C184.283 129.873 184.097 129.856 183.907 129.856C182.066 129.856 180.575 131.351 180.575 133.196C180.575 135.041 182.066 136.536 183.907 136.536C184.367 136.536 184.806 136.442 185.205 136.272C185.789 137.237 186.847 137.881 188.054 137.881C189.357 137.881 190.484 137.13 191.032 136.037C191.356 136.143 191.702 136.201 192.062 136.201C193.902 136.201 195.393 134.705 195.393 132.861C195.393 131.016 193.902 129.521 192.062 129.521Z" fill="white"/>
<path d="M184.333 133.196C182.085 132.726 181.869 128.838 185.564 123.099C186.305 121.95 188.606 118.2 190.999 122.591C192.18 124.758 195.564 133.777 190.781 134.286C189.05 134.47 188.68 134.105 184.333 133.196Z" fill="#FF3334"/>
<path d="M187.706 122.224V123.356" stroke="black" stroke-width="0.737402" stroke-linecap="round" stroke-linejoin="round"/>
<path d="M189.516 123.808V124.827" stroke="black" stroke-width="0.737402" stroke-linecap="round" stroke-linejoin="round"/>
<path d="M186.241 124.827V126.186" stroke="black" stroke-width="0.737402" stroke-linecap="round" stroke-linejoin="round"/>
<path d="M187.984 126.186V127.771" stroke="black" stroke-width="0.737402" stroke-linecap="round" stroke-linejoin="round"/>
<path d="M191.209 125.689V126.978" stroke="black" stroke-width="0.737402" stroke-linecap="round" stroke-linejoin="round"/>
<path d="M186.241 128.733V129.468" stroke="black" stroke-width="0.737402" stroke-linecap="round" stroke-linejoin="round"/>
<path d="M184.435 129.101V130.487" stroke="black" stroke-width="0.737402" stroke-linecap="round" stroke-linejoin="round"/>
<path d="M188.669 129.794V131.053" stroke="black" stroke-width="0.737402" stroke-linecap="round" stroke-linejoin="round"/>
<path d="M190.758 128.733V129.794" stroke="black" stroke-width="0.737402" stroke-linecap="round" stroke-linejoin="round"/>
<path d="M191.661 131.053V132.185" stroke="black" stroke-width="0.737402" stroke-linecap="round" stroke-linejoin="round"/>
<path d="M187.258 131.053V132.185" stroke="black" stroke-width="0.737402" stroke-linecap="round" stroke-linejoin="round"/>
<path d="M207.404 138.617C206.91 138.617 206.437 138.709 206.001 138.877C205.502 137.282 204.017 136.125 202.261 136.125C200.506 136.125 198.904 137.375 198.467 139.067C198.253 139.031 198.034 139.011 197.81 139.011C195.646 139.011 193.891 140.77 193.891 142.94C193.891 145.111 195.645 146.87 197.81 146.87C198.352 146.87 198.868 146.759 199.338 146.56C200.025 147.694 201.269 148.451 202.689 148.451C204.222 148.451 205.548 147.568 206.193 146.283C206.574 146.407 206.98 146.475 207.403 146.475C209.568 146.475 211.323 144.716 211.323 142.545C211.323 140.375 209.568 138.616 207.403 138.616L207.404 138.617Z" fill="#F9737A"/>
<path d="M206.685 137.886C206.264 137.886 205.863 137.965 205.492 138.107C205.068 136.751 203.806 135.768 202.313 135.768C200.821 135.768 199.459 136.83 199.088 138.269C198.906 138.238 198.72 138.221 198.53 138.221C196.689 138.221 195.198 139.716 195.198 141.561C195.198 143.406 196.689 144.901 198.53 144.901C198.99 144.901 199.429 144.807 199.828 144.638C200.412 145.602 201.47 146.246 202.677 146.246C203.98 146.246 205.108 145.495 205.655 144.402C205.98 144.508 206.325 144.566 206.685 144.566C208.525 144.566 210.016 143.071 210.016 141.226C210.016 139.381 208.525 137.886 206.685 137.886Z" fill="white"/>
<path d="M198.955 141.561C196.708 141.091 196.492 137.202 200.187 131.464C200.927 130.315 203.229 126.564 205.622 130.955C206.803 133.123 210.186 142.142 205.404 142.65C203.673 142.834 203.303 142.469 198.955 141.561Z" fill="#FF3334"/>
<path d="M202.33 130.589V131.721" stroke="black" stroke-width="0.737402" stroke-linecap="round" stroke-linejoin="round"/>
<path d="M204.139 132.173V133.192" stroke="black" stroke-width="0.737402" stroke-linecap="round" stroke-linejoin="round"/>
<path d="M200.865 133.192V134.551" stroke="black" stroke-width="0.737402" stroke-linecap="round" stroke-linejoin="round"/>
<path d="M202.607 134.551V136.136" stroke="black" stroke-width="0.737402" stroke-linecap="round" stroke-linejoin="round"/>
<path d="M205.833 134.054V135.343" stroke="black" stroke-width="0.737402" stroke-linecap="round" stroke-linejoin="round"/>
<path d="M200.865 137.098V137.833" stroke="black" stroke-width="0.737402" stroke-linecap="round" stroke-linejoin="round"/>
<path d="M199.058 137.466V138.852" stroke="black" stroke-width="0.737402" stroke-linecap="round" stroke-linejoin="round"/>
<path d="M203.292 138.159V139.418" stroke="black" stroke-width="0.737402" stroke-linecap="round" stroke-linejoin="round"/>
<path d="M205.381 137.098V138.159" stroke="black" stroke-width="0.737402" stroke-linecap="round" stroke-linejoin="round"/>
<path d="M206.284 139.418V140.55" stroke="black" stroke-width="0.737402" stroke-linecap="round" stroke-linejoin="round"/>
<path d="M201.88 139.418V140.55" stroke="black" stroke-width="0.737402" stroke-linecap="round" stroke-linejoin="round"/>
<path d="M216.137 155.165C215.643 155.165 215.17 155.257 214.734 155.425C214.235 153.83 212.75 152.673 210.994 152.673C209.239 152.673 207.636 153.923 207.199 155.615C206.986 155.579 206.767 155.559 206.543 155.559C204.379 155.559 202.624 157.318 202.624 159.488C202.624 161.659 204.378 163.418 206.543 163.418C207.085 163.418 207.601 163.307 208.07 163.108C208.758 164.242 210.002 164.999 211.422 164.999C212.955 164.999 214.281 164.117 214.926 162.831C215.307 162.955 215.713 163.023 216.136 163.023C218.301 163.023 220.056 161.264 220.056 159.094C220.056 156.923 218.301 155.164 216.136 155.164L216.137 155.165Z" fill="#F9737A"/>
<path d="M215.417 154.434C214.997 154.434 214.595 154.513 214.225 154.655C213.801 153.299 212.538 152.316 211.046 152.316C209.553 152.316 208.191 153.378 207.82 154.817C207.639 154.786 207.453 154.769 207.262 154.769C205.422 154.769 203.931 156.264 203.931 158.109C203.931 159.954 205.422 161.449 207.262 161.449C207.723 161.449 208.162 161.355 208.561 161.186C209.145 162.15 210.202 162.794 211.41 162.794C212.713 162.794 213.84 162.043 214.388 160.951C214.712 161.056 215.058 161.114 215.417 161.114C217.257 161.114 218.749 159.619 218.749 157.774C218.749 155.929 217.257 154.434 215.417 154.434Z" fill="white"/>
<path d="M207.688 158.109C205.441 157.64 205.225 153.751 208.92 148.013C209.66 146.864 211.962 143.113 214.354 147.504C215.536 149.671 218.919 158.691 214.137 159.199C212.406 159.383 212.036 159.018 207.688 158.109Z" fill="#FF3334"/>
<path d="M211.062 147.137V148.269" stroke="black" stroke-width="0.737402" stroke-linecap="round" stroke-linejoin="round"/>
<path d="M212.872 148.722V149.741" stroke="black" stroke-width="0.737402" stroke-linecap="round" stroke-linejoin="round"/>
<path d="M209.597 149.741V151.099" stroke="black" stroke-width="0.737402" stroke-linecap="round" stroke-linejoin="round"/>
<path d="M211.34 151.099V152.684" stroke="black" stroke-width="0.737402" stroke-linecap="round" stroke-linejoin="round"/>
<path d="M214.565 150.602V151.892" stroke="black" stroke-width="0.737402" stroke-linecap="round" stroke-linejoin="round"/>
<path d="M209.597 153.646V154.382" stroke="black" stroke-width="0.737402" stroke-linecap="round" stroke-linejoin="round"/>
<path d="M207.79 154.014V155.401" stroke="black" stroke-width="0.737402" stroke-linecap="round" stroke-linejoin="round"/>
<path d="M212.025 154.708V155.967" stroke="black" stroke-width="0.737402" stroke-linecap="round" stroke-linejoin="round"/>
<path d="M214.114 153.646V154.708" stroke="black" stroke-width="0.737402" stroke-linecap="round" stroke-linejoin="round"/>
<path d="M215.017 155.967V157.098" stroke="black" stroke-width="0.737402" stroke-linecap="round" stroke-linejoin="round"/>
<path d="M210.613 155.967V157.098" stroke="black" stroke-width="0.737402" stroke-linecap="round" stroke-linejoin="round"/>
<path d="M180.694 140.34C180.2 140.34 179.727 140.433 179.291 140.601C178.792 139.006 177.306 137.849 175.551 137.849C173.795 137.849 172.193 139.098 171.756 140.791C171.543 140.754 171.324 140.735 171.1 140.735C168.935 140.735 167.18 142.494 167.18 144.664C167.18 146.835 168.935 148.593 171.1 148.593C171.642 148.593 172.158 148.483 172.627 148.283C173.315 149.417 174.559 150.175 175.979 150.175C177.512 150.175 178.838 149.292 179.482 148.007C179.864 148.131 180.27 148.199 180.693 148.199C182.858 148.199 184.613 146.44 184.613 144.269C184.613 142.099 182.858 140.34 180.693 140.34L180.694 140.34Z" fill="#F9737A"/>
<path d="M179.974 139.609C179.554 139.609 179.153 139.688 178.782 139.83C178.358 138.474 177.095 137.491 175.603 137.491C174.111 137.491 172.748 138.554 172.378 139.992C172.196 139.962 172.01 139.944 171.819 139.944C169.979 139.944 168.488 141.44 168.488 143.284C168.488 145.129 169.979 146.624 171.819 146.624C172.28 146.624 172.719 146.53 173.118 146.361C173.702 147.325 174.76 147.969 175.967 147.969C177.27 147.969 178.397 147.219 178.945 146.126C179.269 146.232 179.615 146.289 179.974 146.289C181.815 146.289 183.306 144.794 183.306 142.949C183.306 141.104 181.815 139.609 179.974 139.609Z" fill="white"/>
<path d="M172.245 143.285C169.998 142.815 169.782 138.927 173.477 133.188C174.217 132.039 176.519 128.289 178.911 132.68C180.092 134.847 183.476 143.866 178.694 144.375C176.963 144.559 176.593 144.193 172.245 143.285Z" fill="#FF3334"/>
<path d="M175.619 132.312V133.445" stroke="black" stroke-width="0.737402" stroke-linecap="round" stroke-linejoin="round"/>
<path d="M177.429 133.897V134.916" stroke="black" stroke-width="0.737402" stroke-linecap="round" stroke-linejoin="round"/>
<path d="M174.154 134.917V136.274" stroke="black" stroke-width="0.737402" stroke-linecap="round" stroke-linejoin="round"/>
<path d="M175.897 136.274V137.859" stroke="black" stroke-width="0.737402" stroke-linecap="round" stroke-linejoin="round"/>
<path d="M179.123 135.778V137.067" stroke="black" stroke-width="0.737402" stroke-linecap="round" stroke-linejoin="round"/>
<path d="M174.154 138.822V139.558" stroke="black" stroke-width="0.737402" stroke-linecap="round" stroke-linejoin="round"/>
<path d="M172.348 139.189V140.576" stroke="black" stroke-width="0.737402" stroke-linecap="round" stroke-linejoin="round"/>
<path d="M176.582 139.883V141.142" stroke="black" stroke-width="0.737402" stroke-linecap="round" stroke-linejoin="round"/>
<path d="M178.67 138.822V139.883" stroke="black" stroke-width="0.737402" stroke-linecap="round" stroke-linejoin="round"/>
<path d="M179.574 141.142V142.274" stroke="black" stroke-width="0.737402" stroke-linecap="round" stroke-linejoin="round"/>
<path d="M175.171 141.142V142.274" stroke="black" stroke-width="0.737402" stroke-linecap="round" stroke-linejoin="round"/>
<path d="M165.809 147.731C165.315 147.731 164.842 147.824 164.406 147.991C163.907 146.397 162.421 145.239 160.666 145.239C158.91 145.239 157.308 146.489 156.871 148.181C156.658 148.145 156.439 148.126 156.215 148.126C154.05 148.126 152.295 149.884 152.295 152.055C152.295 154.225 154.05 155.984 156.215 155.984C156.757 155.984 157.273 155.874 157.742 155.674C158.43 156.808 159.674 157.566 161.094 157.566C162.627 157.566 163.953 156.683 164.597 155.397C164.979 155.521 165.385 155.589 165.808 155.589C167.973 155.589 169.728 153.83 169.728 151.66C169.728 149.49 167.973 147.731 165.808 147.731L165.809 147.731Z" fill="#F9737A"/>
<path d="M165.089 147C164.669 147 164.268 147.079 163.897 147.221C163.473 145.865 162.21 144.882 160.718 144.882C159.226 144.882 157.863 145.945 157.493 147.383C157.311 147.353 157.125 147.335 156.934 147.335C155.094 147.335 153.603 148.831 153.603 150.675C153.603 152.52 155.094 154.015 156.934 154.015C157.395 154.015 157.834 153.921 158.233 153.752C158.817 154.716 159.875 155.36 161.082 155.36C162.385 155.36 163.512 154.61 164.06 153.517C164.384 153.623 164.73 153.68 165.089 153.68C166.93 153.68 168.421 152.185 168.421 150.34C168.421 148.496 166.93 147 165.089 147Z" fill="white"/>
<path d="M157.361 150.676C155.113 150.206 154.897 146.317 158.592 140.579C159.333 139.43 161.634 135.68 164.027 140.071C165.208 142.238 168.592 151.257 163.809 151.765C162.078 151.949 161.708 151.584 157.361 150.676Z" fill="#FF3334"/>
<path d="M160.734 139.704V140.836" stroke="black" stroke-width="0.737402" stroke-linecap="round" stroke-linejoin="round"/>
<path d="M162.544 141.288V142.307" stroke="black" stroke-width="0.737402" stroke-linecap="round" stroke-linejoin="round"/>
<path d="M159.269 142.307V143.666" stroke="black" stroke-width="0.737402" stroke-linecap="round" stroke-linejoin="round"/>
<path d="M161.012 143.666V145.25" stroke="black" stroke-width="0.737402" stroke-linecap="round" stroke-linejoin="round"/>
<path d="M164.238 143.169V144.458" stroke="black" stroke-width="0.737402" stroke-linecap="round" stroke-linejoin="round"/>
<path d="M159.269 146.213V146.949" stroke="black" stroke-width="0.737402" stroke-linecap="round" stroke-linejoin="round"/>
<path d="M157.463 146.581V147.967" stroke="black" stroke-width="0.737402" stroke-linecap="round" stroke-linejoin="round"/>
<path d="M161.697 147.274V148.533" stroke="black" stroke-width="0.737402" stroke-linecap="round" stroke-linejoin="round"/>
<path d="M163.786 146.213V147.274" stroke="black" stroke-width="0.737402" stroke-linecap="round" stroke-linejoin="round"/>
<path d="M164.689 148.533V149.666" stroke="black" stroke-width="0.737402" stroke-linecap="round" stroke-linejoin="round"/>
<path d="M160.286 148.533V149.666" stroke="black" stroke-width="0.737402" stroke-linecap="round" stroke-linejoin="round"/>
<path d="M180.694 155.354C180.2 155.354 179.727 155.446 179.291 155.614C178.792 154.019 177.306 152.862 175.551 152.862C173.795 152.862 172.193 154.112 171.756 155.804C171.543 155.768 171.324 155.748 171.1 155.748C168.935 155.748 167.18 157.507 167.18 159.677C167.18 161.848 168.935 163.607 171.1 163.607C171.642 163.607 172.158 163.496 172.627 163.297C173.315 164.431 174.559 165.188 175.979 165.188C177.512 165.188 178.838 164.306 179.482 163.02C179.864 163.144 180.27 163.212 180.693 163.212C182.858 163.212 184.613 161.453 184.613 159.283C184.613 157.112 182.858 155.353 180.693 155.353L180.694 155.354Z" fill="#F9737A"/>
<path d="M179.974 154.623C179.554 154.623 179.153 154.702 178.782 154.844C178.358 153.488 177.095 152.505 175.603 152.505C174.111 152.505 172.748 153.567 172.378 155.005C172.196 154.975 172.01 154.958 171.819 154.958C169.979 154.958 168.488 156.453 168.488 158.298C168.488 160.143 169.979 161.638 171.819 161.638C172.28 161.638 172.719 161.544 173.118 161.374C173.702 162.339 174.76 162.983 175.967 162.983C177.27 162.983 178.397 162.232 178.945 161.139C179.269 161.245 179.615 161.303 179.974 161.303C181.815 161.303 183.306 159.807 183.306 157.963C183.306 156.118 181.815 154.623 179.974 154.623Z" fill="white"/>
<path d="M172.245 158.298C169.998 157.828 169.782 153.94 173.477 148.201C174.217 147.052 176.519 143.302 178.911 147.693C180.092 149.86 183.476 158.88 178.694 159.388C176.963 159.572 176.593 159.207 172.245 158.298Z" fill="#FF3334"/>
<path d="M175.619 147.326V148.458" stroke="black" stroke-width="0.737402" stroke-linecap="round" stroke-linejoin="round"/>
<path d="M177.429 148.911V149.929" stroke="black" stroke-width="0.737402" stroke-linecap="round" stroke-linejoin="round"/>
<path d="M174.154 149.929V151.288" stroke="black" stroke-width="0.737402" stroke-linecap="round" stroke-linejoin="round"/>
<path d="M175.897 151.288V152.873" stroke="black" stroke-width="0.737402" stroke-linecap="round" stroke-linejoin="round"/>
<path d="M179.123 150.791V152.08" stroke="black" stroke-width="0.737402" stroke-linecap="round" stroke-linejoin="round"/>
<path d="M174.154 153.835V154.57" stroke="black" stroke-width="0.737402" stroke-linecap="round" stroke-linejoin="round"/>
<path d="M172.348 154.203V155.589" stroke="black" stroke-width="0.737402" stroke-linecap="round" stroke-linejoin="round"/>
<path d="M176.582 154.896V156.156" stroke="black" stroke-width="0.737402" stroke-linecap="round" stroke-linejoin="round"/>
<path d="M178.67 153.835V154.896" stroke="black" stroke-width="0.737402" stroke-linecap="round" stroke-linejoin="round"/>
<path d="M179.574 156.156V157.287" stroke="black" stroke-width="0.737402" stroke-linecap="round" stroke-linejoin="round"/>
<path d="M175.171 156.156V157.287" stroke="black" stroke-width="0.737402" stroke-linecap="round" stroke-linejoin="round"/>
<path d="M198.766 156.561C198.272 156.561 197.8 156.653 197.364 156.821C196.865 155.227 195.379 154.069 193.624 154.069C191.868 154.069 190.266 155.319 189.829 157.011C189.616 156.975 189.397 156.955 189.173 156.955C187.008 156.955 185.253 158.714 185.253 160.885C185.253 163.055 187.008 164.814 189.173 164.814C189.714 164.814 190.231 164.703 190.7 164.504C191.388 165.638 192.631 166.396 194.052 166.396C195.585 166.396 196.911 165.513 197.555 164.227C197.937 164.351 198.343 164.419 198.766 164.419C200.93 164.419 202.685 162.66 202.685 160.49C202.685 158.319 200.931 156.561 198.766 156.561L198.766 156.561Z" fill="#F9737A"/>
<path d="M198.047 155.83C197.627 155.83 197.225 155.909 196.855 156.051C196.431 154.695 195.168 153.712 193.676 153.712C192.183 153.712 190.821 154.774 190.45 156.213C190.269 156.182 190.083 156.165 189.892 156.165C188.052 156.165 186.561 157.66 186.561 159.505C186.561 161.35 188.052 162.845 189.892 162.845C190.353 162.845 190.792 162.751 191.191 162.582C191.775 163.546 192.832 164.19 194.04 164.19C195.343 164.19 196.47 163.439 197.018 162.347C197.342 162.452 197.688 162.51 198.047 162.51C199.887 162.51 201.379 161.015 201.379 159.17C201.379 157.325 199.887 155.83 198.047 155.83Z" fill="white"/>
<path d="M190.318 159.505C188.071 159.036 187.855 155.147 191.55 149.409C192.29 148.26 194.592 144.509 196.984 148.9C198.165 151.068 201.549 160.087 196.767 160.595C195.036 160.779 194.666 160.414 190.318 159.505Z" fill="#FF3334"/>
<path d="M193.692 148.533V149.666" stroke="black" stroke-width="0.737402" stroke-linecap="round" stroke-linejoin="round"/>
<path d="M195.501 150.118V151.137" stroke="black" stroke-width="0.737402" stroke-linecap="round" stroke-linejoin="round"/>
<path d="M192.227 151.137V152.496" stroke="black" stroke-width="0.737402" stroke-linecap="round" stroke-linejoin="round"/>
<path d="M193.97 152.496V154.08" stroke="black" stroke-width="0.737402" stroke-linecap="round" stroke-linejoin="round"/>
<path d="M197.195 151.999V153.288" stroke="black" stroke-width="0.737402" stroke-linecap="round" stroke-linejoin="round"/>
<path d="M192.227 155.042V155.778" stroke="black" stroke-width="0.737402" stroke-linecap="round" stroke-linejoin="round"/>
<path d="M190.42 155.41V156.797" stroke="black" stroke-width="0.737402" stroke-linecap="round" stroke-linejoin="round"/>
<path d="M194.655 156.104V157.363" stroke="black" stroke-width="0.737402" stroke-linecap="round" stroke-linejoin="round"/>
<path d="M196.744 155.042V156.104" stroke="black" stroke-width="0.737402" stroke-linecap="round" stroke-linejoin="round"/>
<path d="M197.647 157.363V158.495" stroke="black" stroke-width="0.737402" stroke-linecap="round" stroke-linejoin="round"/>
<path d="M193.243 157.363V158.495" stroke="black" stroke-width="0.737402" stroke-linecap="round" stroke-linejoin="round"/>
<rect x="170.886" y="69" width="5" height="14.1465" transform="rotate(78.9932 170.886 69)" fill="#F3B6B6"/>
<rect x="24.2939" y="68.8153" width="4.4962" height="8.88132" transform="rotate(-162.747 24.2939 68.8153)" fill="#9BE19E"/>
<rect x="78" y="78.1735" width="4.4962" height="8.88132" transform="rotate(-44.8954 78 78.1735)" fill="#CE94D8"/>
<rect x="118.291" y="54" width="5" height="7.3558" transform="rotate(82.3997 118.291 54)" fill="#F7D16F"/>
<rect x="190" y="48.5221" width="5" height="7.3558" transform="rotate(-17.7227 190 48.5221)" fill="#FA7A7A"/>
<defs>
<filter id="filter0_d_2_672" x="0" y="84" width="76.6899" height="90.3317" filterUnits="userSpaceOnUse" color-interpolation-filters="sRGB">
<feFlood flood-opacity="0" result="BackgroundImageFix"/>
<feColorMatrix in="SourceAlpha" type="matrix" values="0 0 0 0 0 0 0 0 0 0 0 0 0 0 0 0 0 0 127 0" result="hardAlpha"/>
<feOffset dx="3.68701" dy="2.94961"/>
<feComposite in2="hardAlpha" operator="out"/>
<feColorMatrix type="matrix" values="0 0 0 0 0.471528 0 0 0 0 0.808333 0 0 0 0 0.646666 0 0 0 1 0"/>
<feBlend mode="normal" in2="BackgroundImageFix" result="effect1_dropShadow_2_672"/>
<feBlend mode="normal" in="SourceGraphic" in2="effect1_dropShadow_2_672" result="shape"/>
</filter>
<filter id="filter1_d_2_672" x="60.0984" y="102.804" width="69.6846" height="80.7455" filterUnits="userSpaceOnUse" color-interpolation-filters="sRGB">
<feFlood flood-opacity="0" result="BackgroundImageFix"/>
<feColorMatrix in="SourceAlpha" type="matrix" values="0 0 0 0 0 0 0 0 0 0 0 0 0 0 0 0 0 0 127 0" result="hardAlpha"/>
<feOffset dx="3.68701" dy="3.68701"/>
<feComposite in2="hardAlpha" operator="out"/>
<feColorMatrix type="matrix" values="0 0 0 0 0.9625 0 0 0 0 0.47724 0 0 0 0 0.47724 0 0 0 1 0"/>
<feBlend mode="normal" in2="BackgroundImageFix" result="effect1_dropShadow_2_672"/>
<feBlend mode="normal" in="SourceGraphic" in2="effect1_dropShadow_2_672" result="shape"/>
</filter>
<filter id="filter2_d_2_672" x="112.454" y="88.4244" width="74.8462" height="78.902" filterUnits="userSpaceOnUse" color-interpolation-filters="sRGB">
<feFlood flood-opacity="0" result="BackgroundImageFix"/>
<feColorMatrix in="SourceAlpha" type="matrix" values="0 0 0 0 0 0 0 0 0 0 0 0 0 0 0 0 0 0 127 0" result="hardAlpha"/>
<feOffset dx="3.68701" dy="3.68701"/>
<feComposite in2="hardAlpha" operator="out"/>
<feColorMatrix type="matrix" values="0 0 0 0 0.51 0 0 0 0 0.5912 0 0 0 0 0.8 0 0 0 1 0"/>
<feBlend mode="normal" in2="BackgroundImageFix" result="effect1_dropShadow_2_672"/>
<feBlend mode="normal" in="SourceGraphic" in2="effect1_dropShadow_2_672" result="shape"/>
</filter>
</defs>
</svg>
