<svg width="375" height="348" viewBox="0 0 375 348" fill="none" xmlns="http://www.w3.org/2000/svg">
<g clip-path="url(#clip0_101_147118)">
<rect y="233" width="375" height="126" fill="#FEE8E3"/>
<path d="M287 302.459C287 296.148 278.79 291.033 268.663 291.033C267.149 291.033 265.679 291.148 264.272 291.364C264.885 290.223 265.217 289.002 265.217 287.732C265.217 281.422 257.008 276.306 246.88 276.306C243.731 276.306 240.768 276.801 238.179 277.673C236.27 272.633 229.004 268.882 220.332 268.882C214.573 268.882 209.435 270.537 206.073 273.125C203.346 268.946 196.766 266 189.081 266C181.396 266 175.327 268.723 172.423 272.645C169.131 269.592 163.538 267.582 157.191 267.582C147.334 267.582 139.295 272.429 138.872 278.506C136.092 277.447 132.824 276.837 129.326 276.837C119.198 276.837 110.989 281.952 110.989 288.263C110.989 289.402 111.258 290.502 111.756 291.541C110.043 291.211 108.224 291.033 106.337 291.033C96.2095 291.033 88 296.148 88 302.459C88 308.769 96.2095 313.885 106.337 313.885C107.637 313.885 108.905 313.8 110.128 313.64C109.185 315.016 108.662 316.532 108.662 318.123C108.662 324.434 116.871 329.549 126.999 329.549C130.61 329.549 133.978 328.898 136.816 327.775C137.712 333.564 145.541 338.09 155.067 338.09C162.034 338.09 168.093 335.669 171.196 332.104C173.044 337.197 180.349 341 189.081 341C197.813 341 205.535 336.976 207.111 331.664C210.072 335.494 216.361 338.137 223.64 338.137C233.768 338.137 241.977 333.022 241.977 326.711C241.977 326.675 241.976 326.639 241.975 326.604C244.595 327.503 247.605 328.015 250.806 328.015C260.934 328.015 269.143 322.899 269.143 316.589C269.143 315.657 268.963 314.752 268.625 313.884C268.638 313.884 268.65 313.884 268.663 313.884C278.79 313.884 287 308.769 287 302.459ZM232.47 316.589C232.47 316.625 232.472 316.661 232.472 316.696C229.853 315.798 226.843 315.286 223.641 315.286C214.66 315.286 207.187 319.309 205.611 324.621C202.65 320.791 196.361 318.148 189.082 318.148C181.803 318.148 176.055 320.569 172.952 324.135C171.105 319.042 163.799 315.238 155.067 315.238C151.456 315.238 148.088 315.89 145.25 317.013C144.354 311.224 136.525 306.697 127 306.697C125.699 306.697 124.431 306.782 123.208 306.943C124.152 305.566 124.675 304.05 124.675 302.459C124.675 301.32 124.405 300.219 123.907 299.181C125.62 299.51 127.44 299.688 129.327 299.688C139.184 299.688 147.223 294.842 147.645 288.765C150.426 289.823 153.694 290.434 157.192 290.434C164.579 290.434 170.946 287.711 173.85 283.788C177.142 286.842 182.735 288.852 189.082 288.852C194.842 288.852 199.98 287.197 203.341 284.609C206.068 288.787 212.648 291.733 220.333 291.733C223.482 291.733 226.446 291.239 229.035 290.367C230.944 295.407 238.209 299.158 246.881 299.158C248.395 299.158 249.865 299.043 251.272 298.827C250.659 299.968 250.326 301.189 250.326 302.458C250.326 303.39 250.507 304.296 250.844 305.163C250.831 305.163 250.819 305.163 250.806 305.163C240.679 305.163 232.47 310.278 232.47 316.589Z" fill="white"/>
<path d="M188.576 330.588C179.216 330.588 170.083 329.948 161.429 328.685C152.375 327.364 144.221 325.412 137.194 322.884C129.95 320.278 124.296 317.199 120.388 313.732C118.433 311.997 116.932 310.171 115.926 308.303C114.91 306.414 114.395 304.474 114.395 302.536C114.395 300.598 114.911 298.657 115.926 296.769C116.931 294.901 118.433 293.075 120.388 291.34C124.296 287.873 129.95 284.794 137.196 282.187C144.223 279.659 152.378 277.708 161.432 276.387C170.087 275.124 179.221 274.484 188.58 274.484C197.938 274.484 207.072 275.124 215.726 276.387C224.781 277.708 232.934 279.659 239.961 282.187C247.206 284.794 252.86 287.872 256.767 291.339C258.723 293.074 260.223 294.9 261.229 296.768C262.246 298.657 262.761 300.597 262.761 302.535C262.761 304.474 262.245 306.414 261.229 308.303C260.224 310.171 258.723 311.997 256.767 313.732C252.86 317.198 247.204 320.278 239.96 322.884C232.932 325.412 224.778 327.364 215.723 328.685C207.068 329.947 197.934 330.588 188.576 330.588Z" fill="#FDE6E6"/>
<path d="M188.578 327.36C226.688 327.36 257.582 316.246 257.582 302.536C257.582 288.826 226.688 277.712 188.578 277.712C150.468 277.712 119.574 288.826 119.574 302.536C119.574 316.246 150.468 327.36 188.578 327.36Z" fill="#F3F3F3"/>
<path d="M101.352 302.535H108.465" stroke="#E9E9E0" stroke-width="2" stroke-linecap="round" stroke-linejoin="round"/>
<path d="M121.552 282.739L123.817 284.15" stroke="#E9E9E0" stroke-width="2" stroke-linecap="round" stroke-linejoin="round"/>
<path d="M153.417 271.216L155.693 274.484" stroke="#1D1D1B" stroke-width="0.515433" stroke-linecap="round" stroke-linejoin="round"/>
<path d="M189.833 268.442V271.57" stroke="#1D1D1B" stroke-width="0.515433" stroke-linecap="round" stroke-linejoin="round"/>
<path d="M223.973 272.339L221.981 274.484" stroke="#E9E9E0" stroke-width="2" stroke-linecap="round" stroke-linejoin="round"/>
<path d="M254.7 280.966L252.424 281.994" stroke="#E9E9E0" stroke-width="2" stroke-linecap="round" stroke-linejoin="round"/>
<path d="M269.494 300.821L276.606 300.643" stroke="#1D1D1B" stroke-width="0.515433" stroke-linecap="round" stroke-linejoin="round"/>
<path d="M255.269 318.967L258.398 320.051" stroke="#E9E9E0" stroke-width="2" stroke-linecap="round" stroke-linejoin="round"/>
<path d="M225.965 329.619L229.494 332.411" stroke="#E9E9E0" stroke-width="2" stroke-linecap="round" stroke-linejoin="round"/>
<path d="M188.578 333.024V336.4" stroke="#E9E9E0" stroke-width="2" stroke-linecap="round" stroke-linejoin="round"/>
<path d="M154.555 330.193L153.132 333.024" stroke="#E9E9E0" stroke-width="2" stroke-linecap="round" stroke-linejoin="round"/>
<path d="M125.535 321.655L122.684 323.239" stroke="#E9E9E0" stroke-width="2" stroke-linecap="round" stroke-linejoin="round"/>
<path d="M187.5 322C213.734 322 235 313.046 235 302C235 290.954 213.734 282 187.5 282C161.266 282 140 290.954 140 302C140 313.046 161.266 322 187.5 322Z" fill="#B3D4EC"/>
<path d="M212 305C206.362 304.251 203.812 299.985 203.202 297.097C192.706 247.377 203.202 137 203.202 137H171.798C171.798 137 182.294 247.377 171.798 297.097C171.188 299.985 168.638 304.251 163 305" fill="#98C5E6"/>
<path d="M294.999 198.001C288.81 206.788 279.853 214.593 268.379 221.199C257.249 227.606 244.334 232.553 229.993 235.901C216.285 239.1 201.819 240.723 186.996 240.723C172.174 240.723 157.708 239.101 144.001 235.901C129.661 232.553 116.747 227.606 105.618 221.199C94.1434 214.593 85.1889 206.789 79 198.002L103.875 249.12C108.639 255.882 115.531 261.889 124.362 266.973C132.929 271.905 142.868 275.712 153.905 278.289C164.455 280.752 175.588 282 186.998 282C198.407 282 209.541 280.751 220.091 278.289C231.13 275.712 241.07 271.905 249.636 266.972C258.468 261.888 265.361 255.881 270.125 249.117L295 198L294.999 198.001Z" fill="#BCDBEC"/>
<path d="M187.497 257C172.673 257 158.207 255.369 144.499 252.15C130.157 248.783 117.243 243.809 106.113 237.365C94.6377 230.722 85.6825 222.874 79.4932 214.038C76.3956 209.616 74.0188 204.961 72.4261 200.201C70.8157 195.386 70 190.441 70 185.501C70 180.56 70.8169 175.614 72.4261 170.8C74.0176 166.04 76.3956 161.385 79.4932 156.963C85.6825 148.127 94.6389 140.278 106.115 133.635C117.245 127.191 130.162 122.217 144.504 118.85C158.212 115.631 172.68 114 187.503 114C202.326 114 216.793 115.631 230.501 118.85C244.843 122.217 257.757 127.191 268.887 133.635C280.362 140.278 289.319 148.126 295.507 156.962C298.604 161.384 300.981 166.039 302.574 170.799C304.184 175.614 305 180.559 305 185.499C305 190.44 304.183 195.386 302.574 200.2C300.982 204.96 298.604 209.615 295.507 214.037C289.318 222.873 280.36 230.722 268.885 237.365C257.755 243.809 244.838 248.783 230.496 252.15C216.788 255.368 202.32 257 187.497 257Z" fill="#F2FAFF" stroke="#DDF1FA" stroke-width="4" stroke-linecap="round" stroke-linejoin="round"/>
<path d="M187.5 248C247.975 248 297 219.794 297 185C297 150.206 247.975 122 187.5 122C127.025 122 78 150.206 78 185C78 219.794 127.025 248 187.5 248Z" fill="#E3EEF7"/>
<path d="M55.7718 263.144C65.061 262.807 86.1777 265.814 96.3303 280.53L55.7718 263.144Z" stroke="#AB9B9B" stroke-width="2.4" stroke-linejoin="round"/>
<path d="M55.8591 262.94C61.7959 270.086 78.0903 283.512 95.7738 280.05L55.8591 262.94Z" stroke="#AB9B9B" stroke-width="2.4" stroke-linejoin="round"/>
<path d="M56.4154 263.42C66.6861 258.423 89.3055 254.961 97.6177 281.082" stroke="#AB9B9B" stroke-width="2.4" stroke-linejoin="round"/>
<path d="M55.8591 262.94C59.3941 273.657 72.5836 292.193 97.0614 280.602" stroke="#AB9B9B" stroke-width="2.4" stroke-linejoin="round"/>
<path d="M56.1647 263.398L45.1469 258.675" stroke="#AB9B9B" stroke-width="2.4"/>
<path d="M19.2972 247.594C19.7988 246.424 21.1541 245.882 22.3243 246.384L49.0213 257.828L47.2048 262.065L20.5077 250.621C19.3375 250.12 18.7956 248.764 19.2972 247.594Z" fill="#D3928E"/>
<g clip-path="url(#clip1_101_147118)">
<path d="M328.208 276.521L344.639 264.235C344.639 264.235 344.106 270.671 347.044 276.631C347.044 276.631 360.268 283.919 349.966 285.564L332.367 285.46C332.367 285.46 325.866 280.793 328.206 276.519L328.208 276.521Z" fill="#E96B71"/>
<path d="M272.561 296.593C272.561 296.593 286.877 281.117 298.417 270.758C306.033 263.92 328.419 256.408 337.983 281.326C340.846 288.785 339.325 306.523 321.529 308.726C309.365 310.231 302.347 311.015 272.559 306.377C270.139 306.001 267.363 301.782 272.559 296.591L272.561 296.593Z" fill="#FF868C"/>
<path d="M266.658 303.524C267.359 304.092 267.809 305.274 267.665 306.164C267.594 306.608 267.388 306.895 267.111 307.001C266.834 307.106 266.489 307.028 266.14 306.745C265.44 306.176 264.989 304.995 265.133 304.105C265.205 303.661 265.41 303.374 265.687 303.268C265.965 303.162 266.309 303.24 266.658 303.524Z" fill="#989898"/>
<path d="M271.086 301.837C271.787 302.406 272.237 303.587 272.093 304.477C272.022 304.921 271.816 305.208 271.539 305.314C271.262 305.42 270.917 305.341 270.568 305.058C269.868 304.49 269.417 303.308 269.561 302.418C269.633 301.974 269.838 301.687 270.115 301.581C270.393 301.476 270.737 301.554 271.086 301.837Z" fill="white"/>
<path d="M271.539 305.314C271.814 305.208 272.021 304.921 272.093 304.477C272.237 303.587 271.787 302.406 271.086 301.837C270.737 301.554 270.39 301.476 270.115 301.581L265.688 303.268C265.963 303.162 266.309 303.24 266.659 303.524C267.359 304.092 267.809 305.274 267.666 306.164C267.594 306.608 267.388 306.895 267.111 307.001L271.539 305.314Z" fill="white"/>
<path d="M304.265 273.409C307.615 269.227 312.641 269.227 314.735 269.75C321.855 271.005 316.306 274.106 312.641 275.5C301.752 280.1 302.52 276.023 304.265 273.409Z" fill="#FFBCBF"/>
</g>
</g>
<defs>
<clipPath id="clip0_101_147118">
<rect width="375" height="348" fill="white"/>
</clipPath>
<clipPath id="clip1_101_147118">
<rect width="89" height="46" fill="white" transform="translate(265 264)"/>
</clipPath>
</defs>
</svg>
