<svg width="375" height="348" viewBox="0 0 375 348" fill="none" xmlns="http://www.w3.org/2000/svg">
<g clip-path="url(#clip0_71_84441)">
<rect x="-22" y="233" width="420" height="126" fill="#FEE8E3"/>
<rect x="186" y="233" width="119" height="6.99999" transform="rotate(90 186 233)" fill="#FFE4E4"/>
<path d="M187.5 335C213.734 335 235 326.046 235 315C235 303.954 213.734 295 187.5 295C161.266 295 140 303.954 140 315C140 326.046 161.266 335 187.5 335Z" fill="#B3D4EC"/>
<path d="M212 311C206.362 310.251 203.812 305.985 203.202 303.097C192.706 253.377 203.202 143 203.202 143H171.798C171.798 143 182.294 253.377 171.798 303.097C171.188 305.985 168.638 310.251 163 311" fill="#98C5E6"/>
<path d="M294.999 204.001C288.81 212.788 279.853 220.593 268.379 227.199C257.249 233.606 244.334 238.553 229.993 241.901C216.285 245.1 201.819 246.723 186.996 246.723C172.174 246.723 157.708 245.101 144.001 241.901C129.661 238.553 116.747 233.606 105.618 227.199C94.1434 220.593 85.1889 212.789 79 204.002L103.875 255.12C108.639 261.882 115.531 267.889 124.362 272.973C132.929 277.905 142.868 281.712 153.905 284.289C164.455 286.752 175.588 288 186.998 288C198.407 288 209.541 286.751 220.091 284.289C231.13 281.712 241.07 277.905 249.636 272.972C258.468 267.888 265.361 261.881 270.125 255.117L295 204L294.999 204.001Z" fill="#BCDBEC"/>
<path d="M187.497 257C172.673 257 158.207 255.369 144.499 252.15C130.157 248.783 117.243 243.809 106.113 237.365C94.6377 230.722 85.6825 222.874 79.4932 214.038C76.3956 209.616 74.0188 204.961 72.4261 200.201C70.8157 195.386 70 190.441 70 185.501C70 180.56 70.8169 175.614 72.4261 170.8C74.0176 166.04 76.3956 161.385 79.4932 156.963C85.6825 148.127 94.6389 140.278 106.115 133.635C117.245 127.191 130.162 122.217 144.504 118.85C158.212 115.631 172.68 114 187.503 114C202.326 114 216.793 115.631 230.501 118.85C244.843 122.217 257.757 127.191 268.887 133.635C280.362 140.278 289.319 148.126 295.507 156.962C298.604 161.384 300.981 166.039 302.574 170.799C304.184 175.614 305 180.559 305 185.499C305 190.44 304.183 195.386 302.574 200.2C300.982 204.96 298.604 209.615 295.507 214.037C289.318 222.873 280.36 230.722 268.885 237.365C257.755 243.809 244.838 248.783 230.496 252.15C216.788 255.368 202.32 257 187.497 257Z" fill="#F2FAFF" stroke="#DDF1FA" stroke-width="4" stroke-linecap="round" stroke-linejoin="round"/>
<path d="M187.5 248C247.975 248 297 219.794 297 185C297 150.206 247.975 122 187.5 122C127.025 122 78 150.206 78 185C78 219.794 127.025 248 187.5 248Z" fill="#E3EEF7"/>
</g>
<defs>
<clipPath id="clip0_71_84441">
<rect width="375" height="348" fill="white"/>
</clipPath>
</defs>
</svg>
