<svg width="343" height="570" viewBox="0 0 343 570" fill="none" xmlns="http://www.w3.org/2000/svg">
<g clip-path="url(#clip0_761_1079)">
<rect width="343" height="570" fill="#FFD8D8"/>
<path d="M102.034 -2.41339C92.8343 -53.6134 41.5343 -44.4134 17.0343 -33.4134C-9.76567 -26.6646 -35.1324 13.0653 -44.4657 32.0866C-72.0657 108.087 -38.9657 165.087 -18.9657 184.087C26.2343 211.687 37.0343 149.587 37.0343 149.587C37.0343 149.587 33.9343 108.887 71.5343 80.0866C109.134 51.2866 107.534 13.0866 102.034 -2.41339Z" fill="#FFCECE"/>
<path d="M319.571 170.034C370.771 160.834 361.571 109.534 350.571 85.0343C343.822 58.2343 304.092 32.8676 285.071 23.5343C209.071 -4.06574 152.071 29.0343 133.071 49.0343C105.471 94.2343 167.571 105.034 167.571 105.034C167.571 105.034 208.271 101.934 237.071 139.534C265.871 177.134 304.071 175.534 319.571 170.034Z" fill="#FFCECE"/>
<path d="M214.075 435.96C233.706 484.134 281.978 464.482 303.66 448.634C328.474 436.467 345.038 392.336 350.218 371.791C361.435 291.717 317.22 242.832 293.711 228.4C243.765 210.787 246.095 273.776 246.095 273.776C246.095 273.776 257.579 312.945 226.779 348.925C195.979 384.905 205.476 421.94 214.075 435.96Z" fill="#FFCECE"/>
<path d="M-63.5582 501.832C-109.108 526.957 -83.9509 572.602 -65.6785 592.284C-50.6959 615.507 -4.93151 626.801 16.0778 629.545C96.9146 631.329 140.298 581.706 151.885 556.671C163.542 505.01 101.256 514.684 101.256 514.684C101.256 514.684 63.6972 530.665 24.3651 504.28C-14.967 477.895 -50.6388 491.654 -63.5582 501.832Z" fill="#FFCECE"/>
</g>
<defs>
<clipPath id="clip0_761_1079">
<rect width="343" height="570" fill="white"/>
</clipPath>
</defs>
</svg>
